<svg fill="none" xmlns="http://www.w3.org/2000/svg" viewBox="0 0 1235 374"><path d="m466.07 79.24-83.36 144.37-10.18 17.63-30.96 53.63-30.96-53.63-1.18-2.04-58.18-100.77-34.18-59.19h82.29l51.21 88.7 51.22-88.7h64.28ZM300.64 295.24H78.43l31.17-54 79.93-138.44 41.15 71.27-38.79 67.17h77.57l19.4 33.59 11.78 20.41ZM565.25 133.28h20.33v108h-12.63v.16l-56.68-72.85v72.69h-20.32V133.44h16.48l52.83 66.84-.01-67ZM618.84 209.98c1.23 9.39 9.39 16.17 22.64 16.17 6.93 0 16-2.62 20.33-7.09l12 11.86c-8 8.32-21.1 12.32-32.65 12.32-26.18 0-41.74-16.17-41.74-40.5 0-23.1 15.71-39.73 40.35-39.73 25.41 0 41.28 15.71 38.35 47l-59.28-.03Zm41.27-15.56c-1.23-9.85-8.93-14.75-19.68-14.75-10.17 0-18.48 4.93-21.25 14.78l40.93-.03ZM739.43 165.32h22.49v.61l-25 36.81 26.49 38v.46h-22.45l-16.48-25.41L708 241.2h-22.48v-.46l26.49-38-25-36.81v-.61h22.48l14.94 25.72 15-25.72ZM799.48 143.91v21.56h20.95v16.2h-21.1v32.8c0 7.24 4 10.78 9.86 10.78a21.388 21.388 0 0 0 9.09-2.31l5.23 16a42.003 42.003 0 0 1-15.55 3.24c-16.48.61-27.26-8.78-27.26-27.73v-32.78h-14.18v-16.2h14.17v-19.56l18.79-2ZM851.84 165.32l1.38 8.77c5.86-9.39 13.71-10.78 21.41-10.78 7.7 0 15.4 3.08 19.56 7.24l-8.47 16.33a18.747 18.747 0 0 0-13.55-4.93c-9.86 0-19 5.23-19 19.25v40h-18.74v-75.88h17.41ZM976.73 203.36c0 21.86-14.94 39.58-39.58 39.58s-39.42-17.72-39.42-39.58 15.09-39.58 39.27-39.58c24.18 0 39.73 17.89 39.73 39.58Zm-60.21 0c0 11.55 6.92 22.33 20.63 22.33 13.71 0 20.64-10.78 20.64-22.33 0-11.4-8-22.49-20.64-22.49-13.55 0-20.63 11.09-20.63 22.49ZM1045.57 241.24v-39.73c0-11.55-6.32-20.33-18.33-20.33-11.55 0-19.4 9.7-19.4 21.25v38.81H989.2v-76.08h16.79l1.23 10.32c7.7-7.55 15.4-11.4 25-11.4 17.86 0 32.19 13.4 32.19 37.27v39.89h-18.84ZM1136.43 241.24v-39.73c0-11.55-6.32-20.33-18.33-20.33-11.55 0-19.41 9.7-19.41 21.25v38.81h-18.63v-76.08h16.79l1.23 10.32c7.7-7.55 15.4-11.4 24.95-11.4 17.86 0 32.19 13.4 32.19 37.27v39.89h-18.79Z" fill="#FF5F1F"/><path d="M310.46 348.75 497.22 25.28M246.35 348.45 432.47 26.1M129.34 349.59 316.73 25M331.36 348.45 144.78 25.29M373.15 349.57 185.92 25.29M454.96 348.75 268.68 26.1M47.22 349.29 233.98 25.82M24 241.24h1185.43M24 349.24h1185.43M24 133.24h1185.43M24 25.24h1185.43M24 295.24h1185.43M24 79.24h1185.43M78 25.24v324M24 25.24v324M1209.43 25.24v324M1155.43 25.24v324M466.29 25.24v324M494.57 25.24v324" stroke="#666" stroke-miterlimit="10"/></svg>