<svg width="1187" height="326" viewBox="0 0 1187 326" fill="none" xmlns="http://www.w3.org/2000/svg">
<g clip-path="url(#clip0)">
<path d="M442.57 54.5L359.21 198.87L349.03 216.5L318.07 270.13L287.11 216.5L285.93 214.46L227.75 113.69L193.57 54.5H275.86L327.07 143.2L378.29 54.5H442.57Z" fill="#FF5F1F"/>
<path d="M277.14 270.5H54.9302L86.1002 216.5L166.03 78.0601L207.18 149.33L168.39 216.5H245.96L265.36 250.09L277.14 270.5Z" fill="#FF5F1F"/>
<path d="M541.75 108.54H562.08V216.54H549.45V216.7L492.77 143.85V216.54H472.45V108.7H488.93L541.76 175.54L541.75 108.54Z" fill="#FF5F1F"/>
<path d="M595.34 185.24C596.57 194.63 604.73 201.41 617.98 201.41C624.91 201.41 633.98 198.79 638.31 194.32L650.31 206.18C642.31 214.5 629.21 218.5 617.66 218.5C591.48 218.5 575.92 202.33 575.92 178C575.92 154.9 591.63 138.27 616.27 138.27C641.68 138.27 657.55 153.98 654.62 185.27L595.34 185.24ZM636.61 169.68C635.38 159.83 627.68 154.93 616.93 154.93C606.76 154.93 598.45 159.86 595.68 169.71L636.61 169.68Z" fill="#FF5F1F"/>
<path d="M715.93 140.58H738.42V141.19L713.42 178L739.91 216V216.46H717.46L700.98 191.05L684.5 216.46H662.02V216L688.51 178L663.51 141.19V140.58H685.99L700.93 166.3L715.93 140.58Z" fill="#FF5F1F"/>
<path d="M775.98 119.17V140.73H796.93V156.93H775.83V189.73C775.83 196.97 779.83 200.51 785.69 200.51C788.854 200.422 791.958 199.633 794.78 198.2L800.01 214.2C795.08 216.259 789.802 217.359 784.46 217.44C767.98 218.05 757.2 208.66 757.2 189.71V156.93H743.02V140.73H757.19V121.17L775.98 119.17Z" fill="#FF5F1F"/>
<path d="M828.34 140.58L829.72 149.35C835.58 139.96 843.43 138.57 851.13 138.57C858.83 138.57 866.53 141.65 870.69 145.81L862.22 162.14C860.399 160.464 858.264 159.166 855.938 158.319C853.613 157.473 851.142 157.096 848.67 157.21C838.81 157.21 829.67 162.44 829.67 176.46V216.46H810.93V140.58H828.34Z" fill="#FF5F1F"/>
<path d="M953.23 178.62C953.23 200.48 938.29 218.2 913.65 218.2C889.01 218.2 874.23 200.48 874.23 178.62C874.23 156.76 889.32 139.04 913.5 139.04C937.68 139.04 953.23 156.93 953.23 178.62ZM893.02 178.62C893.02 190.17 899.94 200.95 913.65 200.95C927.36 200.95 934.29 190.17 934.29 178.62C934.29 167.22 926.29 156.13 913.65 156.13C900.1 156.13 893.02 167.22 893.02 178.62V178.62Z" fill="#FF5F1F"/>
<path d="M1022.07 216.5V176.77C1022.07 165.22 1015.75 156.44 1003.74 156.44C992.19 156.44 984.34 166.14 984.34 177.69V216.5H965.7V140.42H982.49L983.72 150.74C991.42 143.19 999.12 139.34 1008.72 139.34C1026.58 139.34 1040.91 152.74 1040.91 176.61V216.5H1022.07Z" fill="#FF5F1F"/>
<path d="M1112.93 216.5V176.77C1112.93 165.22 1106.61 156.44 1094.6 156.44C1083.05 156.44 1075.19 166.14 1075.19 177.69V216.5H1056.56V140.42H1073.35L1074.58 150.74C1082.28 143.19 1089.98 139.34 1099.53 139.34C1117.39 139.34 1131.72 152.74 1131.72 176.61V216.5H1112.93Z" fill="#FF5F1F"/>
<path d="M286.96 324.01L473.72 0.540039" stroke="#666666" stroke-miterlimit="10"/>
<path d="M222.85 323.71L408.97 1.35986" stroke="#666666" stroke-miterlimit="10"/>
<path d="M105.84 324.85L293.23 0.259766" stroke="#666666" stroke-miterlimit="10"/>
<path d="M307.86 323.71L121.28 0.549805" stroke="#666666" stroke-miterlimit="10"/>
<path d="M349.65 324.83L162.42 0.549805" stroke="#666666" stroke-miterlimit="10"/>
<path d="M431.46 324.01L245.18 1.35986" stroke="#666666" stroke-miterlimit="10"/>
<path d="M23.7202 324.55L210.48 1.08008" stroke="#666666" stroke-miterlimit="10"/>
<path d="M0.5 216.5H1185.93" stroke="#666666" stroke-miterlimit="10"/>
<path d="M0.5 324.5H1185.93" stroke="#666666" stroke-miterlimit="10"/>
<path d="M0.5 108.5H1185.93" stroke="#666666" stroke-miterlimit="10"/>
<path d="M0.5 0.5H1185.93" stroke="#666666" stroke-miterlimit="10"/>
<path d="M0.5 270.5H1185.93" stroke="#666666" stroke-miterlimit="10"/>
<path d="M0.5 54.5H1185.93" stroke="#666666" stroke-miterlimit="10"/>
<path d="M54.5 0.5V324.5" stroke="#666666" stroke-miterlimit="10"/>
<path d="M0.5 0.5V324.5" stroke="#666666" stroke-miterlimit="10"/>
<path d="M1185.93 0.5V324.5" stroke="#666666" stroke-miterlimit="10"/>
<path d="M1131.93 0.5V324.5" stroke="#666666" stroke-miterlimit="10"/>
<path d="M442.79 0.5V324.5" stroke="#666666" stroke-miterlimit="10"/>
<path d="M471.07 0.5V324.5" stroke="#666666" stroke-miterlimit="10"/>
</g>
<defs>
<clipPath id="clip0">
<rect width="1186.43" height="325.1" fill="white"/>
</clipPath>
</defs>
</svg>
