<svg viewBox="0 0 100 100" fill="none" xmlns="http://www.w3.org/2000/svg">
  <path d="M49.9992 0C26.8033 0 8 19.1887 8 42.856C8 66.5265 49.9992 100 49.9992 100C49.9992 100 92 66.5281 92 42.8576C91.9985 19.1887 73.1951 0 49.9992 0Z" fill="#04151F"/>
  <path d="M49.9992 16C35.6397 16 24 27.6394 24 41.9992C24 56.3591 35.6397 68 49.9992 68C64.3603 68 76 56.3591 76 41.9992C76 27.6394 64.3587 16 49.9992 16Z" fill="#FFE115"/>
  <path d="M49.9984 30C43.3723 30 38 35.3749 38 42.0008C38 48.6283 43.3723 54 49.9984 54C56.6261 54 62 48.6283 62 42.0008C62 35.3749 56.6261 30.0016 49.9984 30.0016" fill="#04151F"/>
</svg>
