<svg viewBox="0 0 100 100" fill="none" xmlns="http://www.w3.org/2000/svg">
  <path fill-rule="evenodd" clip-rule="evenodd" d="M51.0175 5.50038C48.2095 5.95179 45.4138 6.47803 42.6334 7.07859C40.7933 7.46895 38.9555 7.83296 37.1392 8.29038C35.4634 8.71427 33.7446 9.09026 32.1021 9.61233C30.5172 10.1025 28.9477 10.6416 27.3959 11.2289C24.3602 12.4025 21.533 14.062 19.0237 16.1431C17.5002 17.4219 16.079 18.8109 14.8863 20.4131C14.0637 21.5544 13.3215 22.7524 12.6654 23.9983C12.0298 25.1885 11.5941 26.5991 11.5798 27.9641C11.5584 31.9779 14.1079 35.3402 17.0431 37.8357C18.0072 38.6499 19.0332 39.4019 20.0735 40.118C23.161 42.2494 26.5222 44.1221 29.9358 45.753C33.459 47.4294 37.0059 49.0388 40.5957 50.5715C43.9903 52.0156 47.4587 53.2369 50.9604 54.4032C51.9673 54.7337 52.9862 55.0642 53.9931 55.3971C57.1663 56.4508 60.4086 57.4255 63.558 58.5678C65.5195 59.2767 67.6096 59.9401 69.5687 60.8262C71.6041 61.7458 73.7179 62.663 75.5128 63.985C76.7209 64.8459 77.7443 65.943 78.5218 67.2108C79.2764 68.461 79.7477 69.8931 79.7811 71.3539C79.8158 72.7563 79.4256 74.1363 78.6622 75.3102C76.6936 78.3876 73.268 80.4855 69.9639 81.8841C65.022 83.9671 59.9672 85.7683 54.8239 87.2797C51.8912 88.1394 48.9584 88.992 46.0042 89.7607C43.0381 90.5318 40.0149 91.3413 37.0178 92.0933C34.0303 92.8453 31.0428 93.523 28.0433 94.1696C26.3246 94.536 24.594 94.8976 22.8872 95.2545C21.8588 95.4604 20.8519 95.6784 19.8211 95.9011C17.6763 96.3681 15.5315 96.8303 13.3771 97.2901C10.9252 97.8313 8.47328 98.3558 6.02137 98.8923C5.30722 99.0479 4.59784 99.2371 3.88608 99.3952C3.25049 99.5413 0.877132 100.092 2.6387 99.9867C5.0906 99.8526 11.637 99.2802 25.6224 97.4098C30.6928 96.5716 35.78 95.8532 40.8576 95.0246C47.1821 94.0065 53.469 92.7643 59.7063 91.3006C61.4917 90.8791 63.2628 90.4289 65.0386 89.9451C66.2098 89.6194 67.3691 89.2817 68.5189 88.9225C73.4228 87.4042 81.2903 84.722 83.1518 83.9125C90.2671 80.7992 94.6972 78.457 97.0087 72.877C97.7967 70.8965 98.168 68.6789 97.9276 66.5547C97.6848 64.5744 97.033 62.6671 96.0137 60.9555C95.0377 59.339 93.7046 57.9596 92.312 56.6855C89.7173 54.3242 86.8083 52.4179 83.6994 50.8014C82.8179 50.3418 81.924 49.9064 81.0189 49.4962C79.8948 48.9854 78.7634 48.492 77.6243 48.0162C76.0206 47.36 74.3964 46.7562 72.7538 46.2057C68.4856 44.7448 64.1507 43.442 59.8611 42.0434C57.4315 41.2641 55.0353 40.3828 52.6791 39.4019C51.6857 38.9883 50.7047 38.5457 49.7368 38.0752C48.5989 37.5243 47.492 36.9208 46.397 36.2742C45.052 35.4624 42.85 34.0662 43.4642 32.1671C43.8927 30.814 45.3686 30.2871 46.5731 29.801C47.6896 29.3507 48.8703 29.0346 50.032 28.7305C53.5789 27.8204 57.1997 27.2074 60.7799 26.4458C61.8326 26.224 62.8833 25.9925 63.9317 25.7513C66.724 25.0975 69.6021 24.6089 72.2634 23.5527C74.5487 22.6547 77.4815 21.2201 78.3361 18.7151C79.562 15.0678 78.1695 11.1235 76.1698 8.0461C75.4457 6.94266 74.7013 5.85281 73.9369 4.77714C72.8848 3.3091 71.7231 1.92728 70.5876 0.528691C70.0734 -0.105944 69.4473 -0.0580471 68.9212 0.104802C68.2214 0.344288 66.3074 2.58107 51.0175 5.50038Z" fill="#CC0000"/>
</svg>
