<svg xmlns="http://www.w3.org/2000/svg" xmlns:xlink="http://www.w3.org/1999/xlink" viewBox="0 0 20 20"><g id="surface1"><rect x="0" y="0" width="20" height="20" style="fill:rgb(94.117647%,85.882353%,30.980392%);fill-opacity:1;stroke:none"></rect><path style="stroke:none;fill-rule:nonzero;fill:rgb(19.607843%,20%,18.823529%);fill-opacity:1" d="M 18.363281 15.230469 C 18.214844 14.316406 17.621094 13.550781 15.859375 12.835938 C 15.246094 12.554688 14.566406 12.355469 14.359375 11.890625 C 14.289062 11.621094 14.28125 11.46875 14.324219 11.304688 C 14.457031 10.773438 15.089844 10.609375 15.589844 10.761719 C 15.914062 10.867188 16.21875 11.117188 16.40625 11.515625 C 17.269531 10.957031 17.265625 10.960938 17.867188 10.574219 C 17.648438 10.234375 17.53125 10.074219 17.386719 9.929688 C 16.867188 9.351562 16.160156 9.050781 15.027344 9.074219 C 14.832031 9.097656 14.636719 9.125 14.4375 9.148438 C 13.875 9.292969 13.335938 9.589844 13.019531 9.988281 C 12.074219 11.0625 12.34375 12.941406 13.496094 13.714844 C 14.632812 14.566406 16.296875 14.761719 16.511719 15.558594 C 16.71875 16.53125 15.792969 16.847656 14.875 16.734375 C 14.199219 16.59375 13.824219 16.25 13.417969 15.625 C 12.667969 16.058594 12.667969 16.058594 11.898438 16.5 C 12.078125 16.902344 12.273438 17.082031 12.578125 17.429688 C 14.027344 18.898438 17.652344 18.824219 18.300781 16.601562 C 18.328125 16.523438 18.503906 16.015625 18.363281 15.230469 Z M 10.871094 9.191406 L 9 9.191406 C 9 10.808594 8.996094 12.414062 8.996094 14.027344 C 8.996094 15.058594 9.046875 16 8.878906 16.289062 C 8.605469 16.855469 7.898438 16.785156 7.574219 16.675781 C 7.246094 16.515625 7.078125 16.285156 6.882812 15.960938 C 6.832031 15.867188 6.789062 15.792969 6.777344 15.789062 C 6.269531 16.097656 5.765625 16.410156 5.257812 16.71875 C 5.507812 17.238281 5.882812 17.691406 6.359375 17.984375 C 7.070312 18.410156 8.03125 18.542969 9.03125 18.3125 C 9.683594 18.121094 10.246094 17.726562 10.542969 17.128906 C 10.96875 16.34375 10.875 15.394531 10.871094 14.34375 C 10.882812 12.628906 10.871094 10.914062 10.871094 9.191406 Z M 10.871094 9.191406 "></path></g></svg>