<svg viewBox="0 0 400 400" fill="none" xmlns="http://www.w3.org/2000/svg"><path d="M131.38 219.649C116.501 223.901 106.739 231.356 100.308 238.805C106.468 233.378 114.718 228.397 125.847 225.22C137.23 221.972 146.941 221.995 154.964 223.554V217.236C148.119 216.606 140.272 217.108 131.38 219.649ZM99.6283 166.537L44.369 181.196C44.369 181.196 45.3761 182.629 47.2409 184.54L94.0939 172.109C94.0939 172.109 93.43 180.723 87.6643 188.429C98.5706 180.121 99.6283 166.537 99.6283 166.537ZM145.884 297.306C68.1194 318.396 26.9767 227.65 14.5204 180.55C8.76543 158.809 6.25317 142.343 5.58357 131.717C5.51163 130.613 5.54489 129.683 5.62237 128.831C1.58835 129.076 -0.342983 131.188 0.0499574 137.29C0.719561 147.91 3.23182 164.374 8.98678 186.123C21.4376 233.216 62.5858 323.962 140.351 302.872C157.277 298.28 169.994 289.917 179.54 279.241C170.741 287.243 159.729 293.545 145.884 297.306ZM160.498 111V116.573H191C190.374 114.6 189.744 112.822 189.118 111H160.498Z" fill="#2D4552"/><path d="M198.352 156.412C212.148 160.314 219.444 169.946 223.3 178.47L238.682 182.821C238.682 182.821 236.584 152.988 209.487 145.323C184.139 138.151 168.54 159.349 166.642 162.093C174.016 156.861 184.784 152.577 198.352 156.412ZM320.795 178.608C295.423 171.403 279.83 192.646 277.96 195.351C285.34 190.125 296.102 185.84 309.664 189.692C323.438 193.6 330.728 203.22 334.596 211.75L350 216.117C350 216.117 347.868 186.278 320.795 178.608ZM305.513 257.266L177.555 221.642C177.555 221.642 178.941 228.636 184.256 237.692L291.99 267.686C300.86 262.575 305.513 257.266 305.513 257.266ZM216.8 333.946C115.482 306.895 127.731 178.337 144.126 117.418C150.876 92.313 157.815 73.6531 163.571 61.1447C160.137 60.4408 157.293 62.2421 154.483 67.9337C148.372 80.2757 140.558 100.371 132.996 128.503C116.606 189.42 104.358 317.973 205.67 345.025C253.424 357.765 290.626 338.402 318.357 307.992C292.034 331.735 258.427 345.047 216.8 333.946Z" fill="#2D4552"/><path d="M160.775 266.73V240.758L88.4252 261.22C88.4252 261.22 93.7713 230.239 131.503 219.563C142.946 216.328 152.71 216.35 160.775 217.904V111.375H197C193.056 99.2186 189.24 89.8593 186.035 83.3562C180.734 72.5925 175.299 79.7277 162.961 90.0202C154.272 97.2609 132.31 112.708 99.2617 121.59C66.2129 130.478 39.4946 128.121 28.3468 126.196C12.5428 123.476 4.27643 120.014 5.04973 132.004C5.72275 142.579 8.24836 158.975 14.0337 180.63C26.5499 227.525 67.915 317.886 146.09 296.885C166.51 291.397 180.923 280.55 190.914 266.724H160.775V266.73ZM44.0284 181.274L99.5844 166.677C99.5844 166.677 97.9651 187.993 77.1382 193.47C56.3054 198.94 44.0284 181.274 44.0284 181.274Z" fill="#E2574C"/><path d="M369.739 112.33C355.299 114.861 320.657 118.013 277.845 106.542C235.022 95.077 206.609 75.0259 195.352 65.6011C179.394 52.2396 172.375 42.9539 165.466 56.9993C159.359 69.3878 151.549 89.5495 143.99 117.774C127.61 178.893 115.367 307.87 216.627 335.011C317.866 362.129 371.763 244.305 388.144 183.18C395.704 154.961 399.019 133.593 399.931 119.815C400.971 104.207 390.246 108.738 369.739 112.33ZM166.289 162.896C166.289 162.896 182.247 138.085 209.312 145.776C236.395 153.466 238.492 183.397 238.492 183.397L166.289 162.896ZM232.357 274.231C184.751 260.291 177.408 222.341 177.408 222.341L305.295 258.084C305.295 258.078 279.481 287.998 232.357 274.231ZM277.573 196.241C277.573 196.241 293.508 171.447 320.569 179.16C347.628 186.861 349.759 216.793 349.759 216.793L277.573 196.241Z" fill="#2EAD33"/><path d="M135.14 247.941L88.2025 261.238C88.2025 261.238 93.3012 232.205 127.879 220.699L101.3 121L99.0035 121.698C66.0454 130.582 39.4002 128.225 28.2829 126.3C12.5222 123.584 4.27851 120.123 5.04958 132.107C5.72087 142.675 8.23946 159.06 14.0089 180.703C26.4911 227.569 67.743 317.875 145.703 296.887L148 296.166L135.14 247.941ZM43.9271 181.346L99.3311 166.757C99.3311 166.757 97.7163 188.061 76.9463 193.534C56.1707 199.001 43.9271 181.346 43.9271 181.346Z" fill="#D65348"/><path d="M234.321 274.377L232.172 273.855C184.652 259.939 177.323 222.053 177.323 222.053L243.149 240.449L278 106.558L277.578 106.447C234.832 95.0016 206.472 74.984 195.234 65.575C179.305 52.2359 172.298 42.9656 165.402 56.9876C159.312 69.3553 151.516 89.4834 143.97 117.661C127.619 178.677 115.399 307.439 216.476 334.533L218.547 335L234.321 274.377ZM166.229 162.707C166.229 162.707 182.158 137.938 209.175 145.615C236.209 153.293 238.302 183.174 238.302 183.174L166.229 162.707Z" fill="#1D8D22"/><path d="M137.94 247.126L125.277 250.715C128.269 267.557 133.542 283.721 141.818 298C143.259 297.683 144.688 297.409 146.155 297.008C150.001 295.972 153.567 294.689 157 293.29C147.752 279.585 141.634 263.801 137.94 247.126ZM132.996 128.501C126.488 152.756 120.666 187.668 122.269 222.686C125.137 221.442 128.167 220.284 131.533 219.33L133.877 218.807C131.019 181.403 137.197 143.287 144.157 117.353C145.921 110.793 147.69 104.691 149.453 99C146.613 100.805 143.555 102.655 140.072 104.561C137.723 111.802 135.35 119.716 132.996 128.501Z" fill="#C04B41"/></svg>