<svg xmlns="http://www.w3.org/2000/svg" viewBox="0 0 20 24"><g id="surface1"><path style="stroke:none;fill-rule:nonzero;fill:currentColor;fill-opacity:1" d="M 19.867188 18.234375 L 11.5625 0.753906 C 11.351562 0.316406 10.917969 0.0273438 10.425781 0.00390625 C 9.9375 -0.03125 9.46875 0.210938 9.214844 0.625 L 0.207031 15.085938 C -0.0742188 15.53125 -0.0664062 16.097656 0.222656 16.535156 L 4.625 23.296875 C 4.96875 23.816406 5.613281 24.050781 6.214844 23.875 L 18.996094 20.128906 C 19.386719 20.015625 19.707031 19.742188 19.875 19.375 C 20.042969 19.011719 20.039062 18.59375 19.867188 18.234375 Z M 18.007812 18.984375 L 7.164062 22.160156 C 6.832031 22.257812 6.515625 21.976562 6.582031 21.644531 L 10.457031 3.257812 C 10.53125 2.914062 11.011719 2.859375 11.160156 3.179688 L 18.335938 18.273438 C 18.398438 18.410156 18.398438 18.566406 18.335938 18.703125 C 18.273438 18.839844 18.152344 18.941406 18.007812 18.984375 Z M 18.007812 18.984375 "></path></g></svg>