<svg viewBox="0 0 25 25" fill="none" xmlns="http://www.w3.org/2000/svg"><g fill="#61DAFB" width="25" height="25"><path d="M23.866 12.448c0-1.474-1.886-2.871-4.776-3.737.667-2.885.37-5.18-.936-5.915a2.065 2.065 0 00-1.038-.254v1.012c.213 0 .385.04.528.118.63.353.904 1.7.69 3.433-.05.426-.134.875-.236 1.334a22.89 22.89 0 00-2.941-.495 22.239 22.239 0 00-1.928-2.268c1.51-1.374 2.928-2.127 3.892-2.127V2.538c-1.274 0-2.942.889-4.628 2.43-1.686-1.532-3.354-2.412-4.628-2.412v1.011c.96 0 2.381.749 3.891 2.114a21.536 21.536 0 00-1.913 2.263 22.053 22.053 0 00-2.946.5 13.426 13.426 0 01-.24-1.316c-.219-1.733.05-3.08.676-3.438.138-.082.32-.118.532-.118V2.56a2.1 2.1 0 00-1.047.254c-1.301.734-1.593 3.025-.922 5.9-2.88.871-4.757 2.264-4.757 3.733 0 1.474 1.885 2.871 4.776 3.737-.667 2.885-.37 5.18.936 5.915.3.172.653.254 1.042.254 1.274 0 2.942-.89 4.628-2.431 1.686 1.533 3.354 2.412 4.627 2.412a2.1 2.1 0 001.047-.254c1.302-.734 1.594-3.025.922-5.9 2.872-.867 4.748-2.264 4.748-3.733zm-6.032-3.025a20.154 20.154 0 01-.625 1.791 24.54 24.54 0 00-1.274-2.15c.658.096 1.292.214 1.9.359zm-2.121 4.83a24.076 24.076 0 01-1.117 1.733 24.64 24.64 0 01-4.178.004 23.454 23.454 0 01-2.085-3.529 24.092 24.092 0 012.075-3.542 24.617 24.617 0 014.179-.004c.384.54.76 1.116 1.12 1.723.353.595.673 1.198.964 1.805a25.182 25.182 0 01-.958 1.81zm1.496-.59c.25.608.463 1.216.639 1.806a21.18 21.18 0 01-1.908.363 25.047 25.047 0 001.269-2.168zm-4.697 4.84c-.431-.436-.862-.92-1.288-1.451.417.018.843.031 1.274.031.435 0 .866-.009 1.287-.031-.417.53-.847 1.015-1.274 1.45zm-3.447-2.671a21.334 21.334 0 01-1.9-.359c.172-.585.385-1.188.626-1.791.19.362.39.725.607 1.088.218.363.44.717.667 1.062zm3.423-9.439c.431.435.862.92 1.288 1.451a29.29 29.29 0 00-1.274-.031c-.435 0-.866.009-1.288.031.417-.53.848-1.016 1.274-1.451zM9.06 9.064a24.949 24.949 0 00-1.269 2.164 19.156 19.156 0 01-.64-1.805c.608-.14 1.247-.263 1.91-.359zm-4.192 5.679c-1.64-.685-2.7-1.583-2.7-2.295s1.06-1.615 2.7-2.295a14.47 14.47 0 011.283-.458c.264.889.612 1.814 1.043 2.762a21.186 21.186 0 00-1.029 2.749c-.458-.141-.894-.295-1.297-.463zm2.492 6.481c-.63-.354-.903-1.7-.69-3.433.051-.427.134-.875.236-1.334.908.218 1.9.386 2.942.495a22.242 22.242 0 001.927 2.267c-1.51 1.375-2.928 2.128-3.891 2.128a1.125 1.125 0 01-.524-.123zm10.988-3.456c.218 1.733-.05 3.08-.676 3.438-.139.082-.32.118-.533.118-.959 0-2.38-.748-3.89-2.114a21.527 21.527 0 001.912-2.263 22.048 22.048 0 002.946-.499c.107.458.19.898.241 1.32zm1.784-3.025a14.44 14.44 0 01-1.283.458 21.491 21.491 0 00-1.043-2.762c.427-.944.77-1.864 1.029-2.749.458.141.894.295 1.301.463 1.64.685 2.701 1.583 2.701 2.295-.005.712-1.065 1.615-2.705 2.295z"></path><path d="M12.498 14.52c1.169 0 2.117-.927 2.117-2.072s-.948-2.073-2.117-2.073c-1.17 0-2.117.928-2.117 2.073s.947 2.073 2.117 2.073z"></path></g></svg>